<svg xmlns="http://www.w3.org/2000/svg" xmlns:xlink="http://www.w3.org/1999/xlink" width="500" zoomAndPan="magnify" viewBox="0 0 375 374.999991" height="500" preserveAspectRatio="xMidYMid meet" version="1.0"><defs><g/></defs><rect x="-37.5" width="450" fill="#ffffff" y="-37.499999" height="449.999989" fill-opacity="1"/><rect x="-37.5" width="450" fill="#ffffff" y="-37.499999" height="449.999989" fill-opacity="1"/><g fill="#000000" fill-opacity="1"><g transform="translate(42.755862, 202.499987)"><g><path d="M 8.40625 0.40625 C 7.019531 0.40625 5.816406 0.15625 4.796875 -0.34375 C 3.785156 -0.851562 3.003906 -1.597656 2.453125 -2.578125 C 1.910156 -3.566406 1.640625 -4.753906 1.640625 -6.140625 C 1.640625 -7.410156 1.910156 -8.476562 2.453125 -9.34375 C 3.003906 -10.207031 3.851562 -10.914062 5 -11.46875 C 6.144531 -12.03125 7.644531 -12.457031 9.5 -12.75 C 10.78125 -12.957031 11.753906 -13.1875 12.421875 -13.4375 C 13.097656 -13.6875 13.550781 -13.96875 13.78125 -14.28125 C 14.019531 -14.59375 14.140625 -14.988281 14.140625 -15.46875 C 14.140625 -16.15625 13.898438 -16.679688 13.421875 -17.046875 C 12.941406 -17.410156 12.140625 -17.59375 11.015625 -17.59375 C 9.816406 -17.59375 8.675781 -17.328125 7.59375 -16.796875 C 6.519531 -16.265625 5.582031 -15.5625 4.78125 -14.6875 L 4.390625 -14.6875 L 2.125 -18.109375 C 3.21875 -19.316406 4.550781 -20.257812 6.125 -20.9375 C 7.707031 -21.613281 9.429688 -21.953125 11.296875 -21.953125 C 14.140625 -21.953125 16.195312 -21.347656 17.46875 -20.140625 C 18.75 -18.929688 19.390625 -17.210938 19.390625 -14.984375 L 19.390625 -5.625 C 19.390625 -4.664062 19.816406 -4.1875 20.671875 -4.1875 C 20.992188 -4.1875 21.3125 -4.242188 21.625 -4.359375 L 21.890625 -4.28125 L 22.28125 -0.515625 C 21.988281 -0.316406 21.570312 -0.15625 21.03125 -0.03125 C 20.5 0.09375 19.914062 0.15625 19.28125 0.15625 C 17.988281 0.15625 16.976562 -0.0859375 16.25 -0.578125 C 15.53125 -1.078125 15.015625 -1.851562 14.703125 -2.90625 L 14.296875 -2.953125 C 13.242188 -0.710938 11.28125 0.40625 8.40625 0.40625 Z M 10.125 -3.640625 C 11.375 -3.640625 12.367188 -4.054688 13.109375 -4.890625 C 13.859375 -5.734375 14.234375 -6.90625 14.234375 -8.40625 L 14.234375 -10.59375 L 13.875 -10.671875 C 13.539062 -10.410156 13.109375 -10.191406 12.578125 -10.015625 C 12.054688 -9.835938 11.300781 -9.664062 10.3125 -9.5 C 9.144531 -9.300781 8.300781 -8.960938 7.78125 -8.484375 C 7.269531 -8.015625 7.015625 -7.34375 7.015625 -6.46875 C 7.015625 -5.539062 7.285156 -4.835938 7.828125 -4.359375 C 8.378906 -3.878906 9.144531 -3.640625 10.125 -3.640625 Z M 10.125 -3.640625 "/></g></g></g><g fill="#000000" fill-opacity="1"><g transform="translate(65.468492, 202.499987)"><g><path d="M 14.859375 -5.140625 L 16.265625 -1.140625 C 15.679688 -0.648438 14.945312 -0.269531 14.0625 0 C 13.175781 0.269531 12.175781 0.40625 11.0625 0.40625 C 8.726562 0.40625 6.953125 -0.226562 5.734375 -1.5 C 4.523438 -2.769531 3.921875 -4.613281 3.921875 -7.03125 L 3.921875 -17.265625 L 0.640625 -17.265625 L 0.640625 -21.5625 L 3.921875 -21.5625 L 3.921875 -25.765625 L 9.34375 -26.640625 L 9.34375 -21.5625 L 15.453125 -21.5625 L 15.453125 -17.265625 L 9.34375 -17.265625 L 9.34375 -7.421875 C 9.34375 -6.359375 9.5625 -5.582031 10 -5.09375 C 10.445312 -4.601562 11.09375 -4.359375 11.9375 -4.359375 C 12.894531 -4.359375 13.734375 -4.617188 14.453125 -5.140625 Z M 14.859375 -5.140625 "/></g></g></g><g fill="#000000" fill-opacity="1"><g transform="translate(82.205142, 202.499987)"><g><path d="M 3.109375 0 L 3.109375 -30.203125 L 8.515625 -30.203125 L 8.515625 -18.734375 L 8.921875 -18.65625 C 9.640625 -19.707031 10.519531 -20.519531 11.5625 -21.09375 C 12.601562 -21.664062 13.859375 -21.953125 15.328125 -21.953125 C 20.085938 -21.953125 22.46875 -19.257812 22.46875 -13.875 L 22.46875 0 L 17.046875 0 L 17.046875 -13.1875 C 17.046875 -14.65625 16.753906 -15.722656 16.171875 -16.390625 C 15.585938 -17.054688 14.675781 -17.390625 13.4375 -17.390625 C 11.925781 -17.390625 10.726562 -16.882812 9.84375 -15.875 C 8.957031 -14.863281 8.515625 -13.289062 8.515625 -11.15625 L 8.515625 0 Z M 3.109375 0 "/></g></g></g><g fill="#000000" fill-opacity="1"><g transform="translate(107.437052, 202.499987)"><g><path d="M 8.953125 0.40625 C 7.003906 0.40625 5.519531 -0.113281 4.5 -1.15625 C 3.476562 -2.207031 2.96875 -3.800781 2.96875 -5.9375 L 2.96875 -30.203125 L 8.375 -30.203125 L 8.375 -6.15625 C 8.375 -4.84375 8.921875 -4.1875 10.015625 -4.1875 C 10.328125 -4.1875 10.660156 -4.238281 11.015625 -4.34375 L 11.296875 -4.265625 L 11.78125 -0.09375 C 11.476562 0.0625 11.078125 0.179688 10.578125 0.265625 C 10.085938 0.359375 9.546875 0.40625 8.953125 0.40625 Z M 8.953125 0.40625 "/></g></g></g><g fill="#000000" fill-opacity="1"><g transform="translate(119.818654, 202.499987)"><g><path d="M 21.296875 -9.546875 L 7.4375 -9.546875 C 7.59375 -7.671875 8.125 -6.304688 9.03125 -5.453125 C 9.945312 -4.609375 11.195312 -4.1875 12.78125 -4.1875 C 14.007812 -4.1875 15.007812 -4.414062 15.78125 -4.875 C 16.550781 -5.332031 17.171875 -6.03125 17.640625 -6.96875 L 18.046875 -6.96875 L 21.640625 -4.671875 C 20.941406 -3.160156 19.878906 -1.9375 18.453125 -1 C 17.035156 -0.0625 15.144531 0.40625 12.78125 0.40625 C 10.550781 0.40625 8.625 -0.015625 7 -0.859375 C 5.382812 -1.703125 4.132812 -2.960938 3.25 -4.640625 C 2.375 -6.316406 1.9375 -8.359375 1.9375 -10.765625 C 1.9375 -13.210938 2.394531 -15.273438 3.3125 -16.953125 C 4.238281 -18.628906 5.488281 -19.878906 7.0625 -20.703125 C 8.644531 -21.535156 10.421875 -21.953125 12.390625 -21.953125 C 15.429688 -21.953125 17.757812 -21.144531 19.375 -19.53125 C 21 -17.914062 21.8125 -15.546875 21.8125 -12.421875 C 21.8125 -11.285156 21.773438 -10.40625 21.703125 -9.78125 Z M 16.640625 -13.046875 C 16.585938 -14.691406 16.207031 -15.882812 15.5 -16.625 C 14.789062 -17.375 13.753906 -17.75 12.390625 -17.75 C 9.648438 -17.75 8.039062 -16.179688 7.5625 -13.046875 Z M 16.640625 -13.046875 "/></g></g></g><g fill="#000000" fill-opacity="1"><g transform="translate(143.23434, 202.499987)"><g><path d="M 14.859375 -5.140625 L 16.265625 -1.140625 C 15.679688 -0.648438 14.945312 -0.269531 14.0625 0 C 13.175781 0.269531 12.175781 0.40625 11.0625 0.40625 C 8.726562 0.40625 6.953125 -0.226562 5.734375 -1.5 C 4.523438 -2.769531 3.921875 -4.613281 3.921875 -7.03125 L 3.921875 -17.265625 L 0.640625 -17.265625 L 0.640625 -21.5625 L 3.921875 -21.5625 L 3.921875 -25.765625 L 9.34375 -26.640625 L 9.34375 -21.5625 L 15.453125 -21.5625 L 15.453125 -17.265625 L 9.34375 -17.265625 L 9.34375 -7.421875 C 9.34375 -6.359375 9.5625 -5.582031 10 -5.09375 C 10.445312 -4.601562 11.09375 -4.359375 11.9375 -4.359375 C 12.894531 -4.359375 13.734375 -4.617188 14.453125 -5.140625 Z M 14.859375 -5.140625 "/></g></g></g><g fill="#000000" fill-opacity="1"><g transform="translate(159.970991, 202.499987)"><g><path d="M 21.296875 -9.546875 L 7.4375 -9.546875 C 7.59375 -7.671875 8.125 -6.304688 9.03125 -5.453125 C 9.945312 -4.609375 11.195312 -4.1875 12.78125 -4.1875 C 14.007812 -4.1875 15.007812 -4.414062 15.78125 -4.875 C 16.550781 -5.332031 17.171875 -6.03125 17.640625 -6.96875 L 18.046875 -6.96875 L 21.640625 -4.671875 C 20.941406 -3.160156 19.878906 -1.9375 18.453125 -1 C 17.035156 -0.0625 15.144531 0.40625 12.78125 0.40625 C 10.550781 0.40625 8.625 -0.015625 7 -0.859375 C 5.382812 -1.703125 4.132812 -2.960938 3.25 -4.640625 C 2.375 -6.316406 1.9375 -8.359375 1.9375 -10.765625 C 1.9375 -13.210938 2.394531 -15.273438 3.3125 -16.953125 C 4.238281 -18.628906 5.488281 -19.878906 7.0625 -20.703125 C 8.644531 -21.535156 10.421875 -21.953125 12.390625 -21.953125 C 15.429688 -21.953125 17.757812 -21.144531 19.375 -19.53125 C 21 -17.914062 21.8125 -15.546875 21.8125 -12.421875 C 21.8125 -11.285156 21.773438 -10.40625 21.703125 -9.78125 Z M 16.640625 -13.046875 C 16.585938 -14.691406 16.207031 -15.882812 15.5 -16.625 C 14.789062 -17.375 13.753906 -17.75 12.390625 -17.75 C 9.648438 -17.75 8.039062 -16.179688 7.5625 -13.046875 Z M 16.640625 -13.046875 "/></g></g></g><g fill="#000000" fill-opacity="1"><g transform="translate(183.386678, 202.499987)"><g><path d="M 0.9375 -18.5625 C 2.132812 -19.207031 3.132812 -19.957031 3.9375 -20.8125 C 4.75 -21.664062 5.210938 -22.539062 5.328125 -23.4375 C 4.328125 -23.476562 3.539062 -23.785156 2.96875 -24.359375 C 2.40625 -24.929688 2.125 -25.671875 2.125 -26.578125 C 2.125 -27.191406 2.257812 -27.738281 2.53125 -28.21875 C 2.8125 -28.707031 3.203125 -29.085938 3.703125 -29.359375 C 4.210938 -29.640625 4.800781 -29.78125 5.46875 -29.78125 C 6.507812 -29.78125 7.347656 -29.414062 7.984375 -28.6875 C 8.628906 -27.957031 8.953125 -26.941406 8.953125 -25.640625 C 8.953125 -23.472656 8.375 -21.613281 7.21875 -20.0625 C 6.0625 -18.507812 4.492188 -17.175781 2.515625 -16.0625 Z M 0.9375 -18.5625 "/></g></g></g><g fill="#000000" fill-opacity="1"><g transform="translate(194.244991, 202.499987)"><g><path d="M 10.078125 0.40625 C 8.609375 0.40625 7.257812 0.234375 6.03125 -0.109375 C 4.8125 -0.453125 3.769531 -0.925781 2.90625 -1.53125 C 2.039062 -2.132812 1.398438 -2.828125 0.984375 -3.609375 L 3.984375 -6.859375 L 4.390625 -6.859375 C 5.109375 -5.890625 5.957031 -5.164062 6.9375 -4.6875 C 7.914062 -4.207031 8.976562 -3.96875 10.125 -3.96875 C 11.175781 -3.96875 11.96875 -4.15625 12.5 -4.53125 C 13.03125 -4.90625 13.296875 -5.445312 13.296875 -6.15625 C 13.296875 -6.695312 13.101562 -7.15625 12.71875 -7.53125 C 12.34375 -7.90625 11.722656 -8.195312 10.859375 -8.40625 L 8.015625 -9.078125 C 5.878906 -9.585938 4.316406 -10.363281 3.328125 -11.40625 C 2.347656 -12.457031 1.859375 -13.789062 1.859375 -15.40625 C 1.859375 -16.75 2.195312 -17.914062 2.875 -18.90625 C 3.5625 -19.894531 4.523438 -20.648438 5.765625 -21.171875 C 7.015625 -21.691406 8.46875 -21.953125 10.125 -21.953125 C 12.0625 -21.953125 13.664062 -21.671875 14.9375 -21.109375 C 16.21875 -20.554688 17.21875 -19.8125 17.9375 -18.875 L 15.046875 -15.75 L 14.65625 -15.75 C 14.050781 -16.425781 13.375 -16.921875 12.625 -17.234375 C 11.875 -17.546875 11.039062 -17.703125 10.125 -17.703125 C 7.988281 -17.703125 6.921875 -17.035156 6.921875 -15.703125 C 6.921875 -15.140625 7.117188 -14.679688 7.515625 -14.328125 C 7.910156 -13.984375 8.609375 -13.703125 9.609375 -13.484375 L 12.265625 -12.890625 C 14.453125 -12.421875 16.050781 -11.664062 17.0625 -10.625 C 18.070312 -9.59375 18.578125 -8.207031 18.578125 -6.46875 C 18.578125 -5.101562 18.238281 -3.898438 17.5625 -2.859375 C 16.882812 -1.816406 15.90625 -1.007812 14.625 -0.4375 C 13.351562 0.125 11.835938 0.40625 10.078125 0.40625 Z M 10.078125 0.40625 "/></g></g></g><g fill="#000000" fill-opacity="1"><g transform="translate(214.106337, 202.499987)"><g/></g></g><g fill="#000000" fill-opacity="1"><g transform="translate(223.539015, 202.499987)"><g><path d="M 12.5625 0.40625 C 10.476562 0.40625 8.632812 -0.0234375 7.03125 -0.890625 C 5.425781 -1.753906 4.175781 -3.023438 3.28125 -4.703125 C 2.382812 -6.390625 1.9375 -8.410156 1.9375 -10.765625 C 1.9375 -13.128906 2.382812 -15.148438 3.28125 -16.828125 C 4.175781 -18.515625 5.414062 -19.789062 7 -20.65625 C 8.59375 -21.519531 10.414062 -21.953125 12.46875 -21.953125 C 17.007812 -21.953125 19.914062 -20.304688 21.1875 -17.015625 L 17.484375 -14.359375 L 17.078125 -14.359375 C 16.628906 -15.367188 16.050781 -16.117188 15.34375 -16.609375 C 14.632812 -17.109375 13.675781 -17.359375 12.46875 -17.359375 C 10.90625 -17.359375 9.6875 -16.816406 8.8125 -15.734375 C 7.9375 -14.660156 7.5 -13.003906 7.5 -10.765625 C 7.5 -8.546875 7.941406 -6.894531 8.828125 -5.8125 C 9.710938 -4.726562 10.957031 -4.1875 12.5625 -4.1875 C 13.726562 -4.1875 14.71875 -4.5 15.53125 -5.125 C 16.351562 -5.757812 16.9375 -6.671875 17.28125 -7.859375 L 17.703125 -7.890625 L 21.546875 -5.78125 C 20.992188 -3.957031 19.976562 -2.46875 18.5 -1.3125 C 17.03125 -0.164062 15.050781 0.40625 12.5625 0.40625 Z M 12.5625 0.40625 "/></g></g></g><g fill="#000000" fill-opacity="1"><g transform="translate(245.74387, 202.499987)"><g><path d="M 5.796875 -24.125 C 4.828125 -24.125 4.035156 -24.421875 3.421875 -25.015625 C 2.804688 -25.609375 2.5 -26.375 2.5 -27.3125 C 2.5 -28.226562 2.804688 -28.984375 3.421875 -29.578125 C 4.035156 -30.171875 4.828125 -30.46875 5.796875 -30.46875 C 6.453125 -30.46875 7.03125 -30.332031 7.53125 -30.0625 C 8.039062 -29.789062 8.4375 -29.414062 8.71875 -28.9375 C 9 -28.457031 9.140625 -27.914062 9.140625 -27.3125 C 9.140625 -26.695312 9 -26.144531 8.71875 -25.65625 C 8.4375 -25.175781 8.039062 -24.800781 7.53125 -24.53125 C 7.03125 -24.257812 6.453125 -24.125 5.796875 -24.125 Z M 3.109375 0 L 3.109375 -21.546875 L 8.515625 -21.546875 L 8.515625 0 Z M 3.109375 0 "/></g></g></g><g fill="#000000" fill-opacity="1"><g transform="translate(257.344288, 202.499987)"><g><path d="M 3.109375 0 L 3.109375 -21.546875 L 8.359375 -21.546875 L 8.359375 -18.34375 L 8.765625 -18.265625 C 9.285156 -19.460938 9.96875 -20.335938 10.8125 -20.890625 C 11.664062 -21.453125 12.695312 -21.734375 13.90625 -21.734375 C 15.132812 -21.734375 16.066406 -21.523438 16.703125 -21.109375 L 15.78125 -16.453125 L 15.375 -16.375 C 15.019531 -16.507812 14.679688 -16.609375 14.359375 -16.671875 C 14.035156 -16.742188 13.640625 -16.78125 13.171875 -16.78125 C 11.660156 -16.78125 10.503906 -16.25 9.703125 -15.1875 C 8.910156 -14.125 8.515625 -12.421875 8.515625 -10.078125 L 8.515625 0 Z M 3.109375 0 "/></g></g></g><g fill="#000000" fill-opacity="1"><g transform="translate(274.237185, 202.499987)"><g><path d="M 12.5625 0.40625 C 10.476562 0.40625 8.632812 -0.0234375 7.03125 -0.890625 C 5.425781 -1.753906 4.175781 -3.023438 3.28125 -4.703125 C 2.382812 -6.390625 1.9375 -8.410156 1.9375 -10.765625 C 1.9375 -13.128906 2.382812 -15.148438 3.28125 -16.828125 C 4.175781 -18.515625 5.414062 -19.789062 7 -20.65625 C 8.59375 -21.519531 10.414062 -21.953125 12.46875 -21.953125 C 17.007812 -21.953125 19.914062 -20.304688 21.1875 -17.015625 L 17.484375 -14.359375 L 17.078125 -14.359375 C 16.628906 -15.367188 16.050781 -16.117188 15.34375 -16.609375 C 14.632812 -17.109375 13.675781 -17.359375 12.46875 -17.359375 C 10.90625 -17.359375 9.6875 -16.816406 8.8125 -15.734375 C 7.9375 -14.660156 7.5 -13.003906 7.5 -10.765625 C 7.5 -8.546875 7.941406 -6.894531 8.828125 -5.8125 C 9.710938 -4.726562 10.957031 -4.1875 12.5625 -4.1875 C 13.726562 -4.1875 14.71875 -4.5 15.53125 -5.125 C 16.351562 -5.757812 16.9375 -6.671875 17.28125 -7.859375 L 17.703125 -7.890625 L 21.546875 -5.78125 C 20.992188 -3.957031 19.976562 -2.46875 18.5 -1.3125 C 17.03125 -0.164062 15.050781 0.40625 12.5625 0.40625 Z M 12.5625 0.40625 "/></g></g></g><g fill="#000000" fill-opacity="1"><g transform="translate(296.442063, 202.499987)"><g><path d="M 8.953125 0.40625 C 7.003906 0.40625 5.519531 -0.113281 4.5 -1.15625 C 3.476562 -2.207031 2.96875 -3.800781 2.96875 -5.9375 L 2.96875 -30.203125 L 8.375 -30.203125 L 8.375 -6.15625 C 8.375 -4.84375 8.921875 -4.1875 10.015625 -4.1875 C 10.328125 -4.1875 10.660156 -4.238281 11.015625 -4.34375 L 11.296875 -4.265625 L 11.78125 -0.09375 C 11.476562 0.0625 11.078125 0.179688 10.578125 0.265625 C 10.085938 0.359375 9.546875 0.40625 8.953125 0.40625 Z M 8.953125 0.40625 "/></g></g></g><g fill="#000000" fill-opacity="1"><g transform="translate(308.823654, 202.499987)"><g><path d="M 21.296875 -9.546875 L 7.4375 -9.546875 C 7.59375 -7.671875 8.125 -6.304688 9.03125 -5.453125 C 9.945312 -4.609375 11.195312 -4.1875 12.78125 -4.1875 C 14.007812 -4.1875 15.007812 -4.414062 15.78125 -4.875 C 16.550781 -5.332031 17.171875 -6.03125 17.640625 -6.96875 L 18.046875 -6.96875 L 21.640625 -4.671875 C 20.941406 -3.160156 19.878906 -1.9375 18.453125 -1 C 17.035156 -0.0625 15.144531 0.40625 12.78125 0.40625 C 10.550781 0.40625 8.625 -0.015625 7 -0.859375 C 5.382812 -1.703125 4.132812 -2.960938 3.25 -4.640625 C 2.375 -6.316406 1.9375 -8.359375 1.9375 -10.765625 C 1.9375 -13.210938 2.394531 -15.273438 3.3125 -16.953125 C 4.238281 -18.628906 5.488281 -19.878906 7.0625 -20.703125 C 8.644531 -21.535156 10.421875 -21.953125 12.390625 -21.953125 C 15.429688 -21.953125 17.757812 -21.144531 19.375 -19.53125 C 21 -17.914062 21.8125 -15.546875 21.8125 -12.421875 C 21.8125 -11.285156 21.773438 -10.40625 21.703125 -9.78125 Z M 16.640625 -13.046875 C 16.585938 -14.691406 16.207031 -15.882812 15.5 -16.625 C 14.789062 -17.375 13.753906 -17.75 12.390625 -17.75 C 9.648438 -17.75 8.039062 -16.179688 7.5625 -13.046875 Z M 16.640625 -13.046875 "/></g></g></g></svg>